<?xml version="1.0" encoding="UTF-8"?>
<svg id="Capa_1" data-name="Capa 1" xmlns="http://www.w3.org/2000/svg" viewBox="0 0 785.35 151.38">
  <defs>
    <style>
      .cls-1, .cls-2 {
        fill: #6d1fe8;
      }

      .cls-1, .cls-3, .cls-4 {
        stroke-width: 0px;
      }

      .cls-5 {
        letter-spacing: 0em;
      }

      .cls-2, .cls-6, .cls-7 {
        font-family: Gotham-Black, 'Gotham Black';
        font-size: 135.19px;
        font-weight: 800;
      }

      .cls-8 {
        letter-spacing: -.09em;
      }

      .cls-6, .cls-3 {
        fill: #fff;
      }

      .cls-9 {
        letter-spacing: 0em;
      }

      .cls-7, .cls-4 {
        fill: #a2e520;
      }

      .cls-10 {
        letter-spacing: 0em;
      }

      .cls-11 {
        letter-spacing: 0em;
      }
    </style>
  </defs>
  <text class="cls-7" transform="translate(198.35 127.99)"><tspan class="cls-9" x="0" y="0">C</tspan><tspan class="cls-5" x="97.34" y="0">e</tspan><tspan class="cls-10" x="179.13" y="0">c</tspan><tspan class="cls-11" x="254.7" y="0">y</tspan><tspan class="cls-8" x="339.33" y="0">T</tspan><tspan x="416.12" y="0">ok</tspan></text>
  <text class="cls-2" transform="translate(193.86 123.99)"><tspan class="cls-9" x="0" y="0">C</tspan><tspan class="cls-5" x="97.34" y="0">e</tspan><tspan class="cls-10" x="179.13" y="0">c</tspan><tspan class="cls-11" x="254.7" y="0">y</tspan><tspan class="cls-8" x="339.33" y="0">T</tspan><tspan x="416.12" y="0">ok</tspan></text>
  <text class="cls-6" transform="translate(196.35 125.99)"><tspan class="cls-9" x="0" y="0">C</tspan><tspan class="cls-5" x="97.34" y="0">e</tspan><tspan class="cls-10" x="179.13" y="0">c</tspan><tspan class="cls-11" x="254.7" y="0">y</tspan><tspan class="cls-8" x="339.33" y="0">T</tspan><tspan x="416.12" y="0">ok</tspan></text>
  <g>
    <path class="cls-1" d="M153.03,126.42c-.12.17-.19.27-.25.37-1.83,3.26-4.28,6.01-7.01,8.54-6.03,5.58-13.1,9.11-21.1,10.83-3.89.84-7.82,1.29-11.79,1.5-6.01.32-12.02.12-18.03-.09-3.4-.12-6.8-.05-10.2-.08-3.62-.04-7.25-.03-10.87-.18-4.09-.17-8.14-.72-12.09-1.86-7.46-2.16-12.92-6.75-16.62-13.52-1.15-2.11-2.02-4.33-2.69-6.63-.06-.21-.13-.42-.19-.64-.01-.04-.06-.08-.15-.18-7.8,1.52-15.49,3.55-22.88,6.91-.04-.46-.13-.84-.1-1.22.08-1.2.19-2.4.3-3.61.05-.55.32-.86.9-1,2.82-.69,5.58-1.61,8.47-2.04.24-.04.48-.1.72-.18,1.86-.62,3.81-.74,5.74-.99,2-.26,3.99-.61,5.98-.93.04,0,.08-.05.19-.13-.13-.65-.28-1.34-.43-2.09-1.17.14-2.28.2-3.36.41-3.31.65-6.6,1.37-9.91,2.04-2.63.53-5.27,1.01-7.9,1.54-4.14.84-8.18,1.99-11.93,3.99-.63.34-1.03.2-1.28-.48-.34-.88-.5-1.81-.35-2.76.13-.89.68-1.48,1.52-1.73.97-.28,1.95-.52,2.94-.73,4.75-.98,9.49-1.99,14.25-2.91,3.41-.65,6.85-1.13,10.32-1.43,1.4-.12,2.8-.21,4.2-.32.32-.02.63-.06,1.06-.1-.19-1.15-.38-2.25-.57-3.37-.26-.01-.45-.04-.64-.03-3.69.14-7.39.27-11.08.43-2.11.09-4.15.47-6.09,1.37-.6.28-1.25.46-1.88.65-.25.08-.53.08-.84.13-.19-.75-.16-1.46,0-2.15.1-.46.17-.91.09-1.38-.02-.12,0-.25,0-.37,0-1.27.53-1.92,1.79-1.97,2.78-.13,5.57-.24,8.35-.29,3.03-.06,6.06-.04,9.09-.06.17,0,.34-.03.6-.05-.08-.53-.15-1.04-.23-1.53-.84-5.26-2.23-10.4-3.54-15.56-.92-3.63-1.8-7.27-2.37-10.97-.61-4-.76-7.99-.13-12,.21-1.36.47-2.72.59-4.09.07-.77-.04-1.57-.16-2.35-.09-.57-.4-.8-.98-.82-3.7-.12-7.03-1.43-10.2-3.18-5.35-2.95-9.83-6.9-13.22-12.02-1.86-2.81-3.17-5.84-3.72-9.18-.34-2.09-.32-4.17.05-6.25.48-2.75,1.15-5.45,2.23-8.03,1.07-2.55,2.48-4.87,4.47-6.82,2.48-2.44,5.47-3.92,8.85-4.62,4.77-.98,9.51-.88,14.15.7,5.43,1.85,9.5,5.4,12.49,10.24,1.48,2.41,2.6,4.97,3.25,7.73.03.12.08.23.16.44,7.58-6.36,16.45-9.73,26.04-11.73-.11-2.04-.79-3.85-1.84-5.54-1.06-1.7-2.48-3.05-4.23-4.02.25-.63.74-.8,1.25-.89,1.55-.29,3.09-.17,4.61.24,2.1.57,3.96,1.61,5.66,2.96,1.9,1.52,3.5,3.33,5.03,5.2.26.31.5.64,1.04.31-.01-.25-.02-.54-.04-.83-.38-3.78.02-7.48,1.23-11.08.19-.58.47-1.14.77-1.67.29-.52.74-.92,1.29-1.18,1.19-.55,2.33-.22,2.85.98.38.87.63,1.82.78,2.76.2,1.23.23,2.48.34,3.74.04-.05.11-.12.15-.2.55-1.23,1.52-2.05,2.67-2.67,1.48-.79,3.08-1.17,4.74-1.32,1.11-.1,1.87.7,1.66,1.8-.1.51-.37,1.01-.64,1.47-.27.44-.65.8-.98,1.21-1.19,1.49-1.89,3.33-1.9,5.16.24-.2.42-.35.59-.5,1.61-1.41,3.46-2.36,5.57-2.73.59-.1,1.24-.08,1.82.07,1.21.3,1.52,1.35.72,2.33-.29.36-.66.66-1,.98-.44.41-.91.8-1.33,1.4.72.06,1.33.11,1.93.16,7.4.57,14.65,1.91,21.59,4.64,4.64,1.82,8.94,4.24,12.81,7.41.11.09.23.18.36.26.04.03.09.03.18.05.11-.29.21-.59.33-.89,2.66-6.99,7.14-12.43,13.69-16.09,3.22-1.8,6.68-2.61,10.38-2.32,3.86.3,7.18,1.8,9.96,4.5,1.77,1.72,3.15,3.72,4.29,5.89,1.9,3.63,3.13,7.5,3.92,11.5.56,2.85.14,5.64-.91,8.34-.68,1.73-1.57,3.35-2.68,4.84-4.08,5.45-9.36,9.25-15.81,11.42-1.62.54-3.29.84-5,.92-.9.04-1.2.23-1.41,1.1-.33,1.36-.55,2.72-.32,4.16.61,3.83.85,7.69.86,11.57,0,3.55-.03,7.1-.17,10.65-.3,7.44-1.03,14.85-2.48,22.16-.19.97-.41,1.93-.61,2.89,0,.05,0,.1.02.19.18.02.37.05.56.06,3.5.1,7,.19,10.5.29.39.01.79.04,1.18.1,1.09.16,1.68.73,1.62,1.83-.05.87.06,1.7.18,2.55.06.45,0,.92,0,1.47-.43-.06-.78-.07-1.09-.17-.66-.2-1.32-.41-1.94-.7-1.75-.8-3.61-1.15-5.51-1.26-2.04-.12-4.09-.18-6.13-.27-.12,0-.24.01-.42.02-.36,1.14-.73,2.28-1.12,3.51.24.05.45.11.65.13,3.66.34,7.29.85,10.89,1.56,5.1,1,10.17,2.11,15.25,3.18.45.1.91.24,1.33.43.68.3,1.08.84,1.18,1.58.14.95-.01,1.87-.34,2.76-.25.67-.65.82-1.28.49-4.29-2.31-8.94-3.48-13.67-4.35-4.24-.77-8.45-1.71-12.65-2.63-.77-.17-1.54-.29-2.38-.45-.33.76-.64,1.47-.99,2.28.83.11,1.57.24,2.32.3,2.07.18,4.08.59,6.11,1.03,2.89.62,5.74,1.37,8.6,2.12.14.04.28.09.43.12.4.08.57.33.65.71.32,1.63.39,3.27.27,5.04-3.23-1.41-6.46-2.66-9.77-3.68-3.32-1.02-6.68-1.88-10.13-2.59Z"/>
    <path class="cls-4" d="M147.93,123.55c-.12.17-.19.27-.25.37-1.83,3.26-4.28,6.01-7.01,8.54-6.03,5.58-13.1,9.11-21.1,10.83-3.89.84-7.82,1.29-11.79,1.5-6.01.32-12.02.12-18.03-.09-3.4-.12-6.8-.05-10.2-.08-3.62-.04-7.25-.03-10.87-.18-4.09-.17-8.14-.72-12.09-1.86-7.46-2.16-12.92-6.75-16.62-13.52-1.15-2.11-2.02-4.33-2.69-6.63-.06-.21-.13-.42-.19-.64-.01-.04-.06-.08-.15-.18-7.8,1.52-15.49,3.55-22.88,6.91-.04-.46-.13-.84-.1-1.22.08-1.2.19-2.4.3-3.61.05-.55.32-.86.9-1,2.82-.69,5.58-1.61,8.47-2.04.24-.04.48-.1.72-.18,1.86-.62,3.81-.74,5.74-.99,2-.26,3.99-.61,5.98-.93.04,0,.08-.05.19-.13-.13-.65-.28-1.34-.43-2.09-1.17.14-2.28.2-3.36.41-3.31.65-6.6,1.37-9.91,2.04-2.63.53-5.27,1.01-7.9,1.54-4.14.84-8.18,1.99-11.93,3.99-.63.34-1.03.2-1.28-.48-.34-.88-.5-1.81-.35-2.76.13-.89.68-1.48,1.52-1.73.97-.28,1.95-.52,2.94-.73,4.75-.98,9.49-1.99,14.25-2.91,3.41-.65,6.85-1.13,10.32-1.43,1.4-.12,2.8-.21,4.2-.32.32-.02.63-.06,1.06-.1-.19-1.15-.38-2.25-.57-3.37-.26-.01-.45-.04-.64-.03-3.69.14-7.39.27-11.08.43-2.11.09-4.15.47-6.09,1.37-.6.28-1.25.46-1.88.65-.25.08-.53.08-.84.13-.19-.75-.16-1.46,0-2.15.1-.46.17-.91.09-1.38-.02-.12,0-.25,0-.37,0-1.27.53-1.92,1.79-1.97,2.78-.13,5.57-.24,8.35-.29,3.03-.06,6.06-.04,9.09-.06.17,0,.34-.03.6-.05-.08-.53-.15-1.04-.23-1.53-.84-5.26-2.23-10.4-3.54-15.56-.92-3.63-1.8-7.27-2.37-10.97-.61-4-.76-7.99-.13-12,.21-1.36.47-2.72.59-4.09.07-.77-.04-1.57-.16-2.35-.09-.57-.4-.8-.98-.82-3.7-.12-7.03-1.43-10.2-3.18-5.35-2.95-9.83-6.9-13.22-12.02-1.86-2.81-3.17-5.84-3.72-9.18-.34-2.09-.32-4.17.05-6.25.48-2.75,1.15-5.45,2.23-8.03,1.07-2.55,2.48-4.87,4.47-6.82,2.48-2.44,5.47-3.92,8.85-4.62,4.77-.98,9.51-.88,14.15.7,5.43,1.85,9.5,5.4,12.49,10.24,1.48,2.41,2.6,4.97,3.25,7.73.03.12.08.23.16.44,7.58-6.36,16.45-9.73,26.04-11.73-.11-2.04-.79-3.85-1.84-5.54-1.06-1.7-2.48-3.05-4.23-4.02.25-.63.74-.8,1.25-.89,1.55-.29,3.09-.17,4.61.24,2.1.57,3.96,1.61,5.66,2.96,1.9,1.52,3.5,3.33,5.03,5.2.26.31.5.64,1.04.31-.01-.25-.02-.54-.04-.83-.38-3.78.02-7.48,1.23-11.08.19-.58.47-1.14.77-1.67.29-.52.74-.92,1.29-1.18,1.19-.55,2.33-.22,2.85.98.38.87.63,1.82.78,2.76.2,1.23.23,2.48.34,3.74.04-.05.11-.12.15-.2.55-1.23,1.52-2.05,2.67-2.67,1.48-.79,3.08-1.17,4.74-1.32,1.11-.1,1.87.7,1.66,1.8-.1.51-.37,1.01-.64,1.47-.27.44-.65.8-.98,1.21-1.19,1.49-1.89,3.33-1.9,5.16.24-.2.42-.35.59-.5,1.61-1.41,3.46-2.36,5.57-2.73.59-.1,1.24-.08,1.82.07,1.21.3,1.52,1.35.72,2.33-.29.36-.66.66-1,.98-.44.41-.91.8-1.33,1.4.72.06,1.33.11,1.93.16,7.4.57,14.65,1.91,21.59,4.64,4.64,1.82,8.94,4.24,12.81,7.41.11.09.23.18.36.26.04.03.09.03.18.05.11-.29.21-.59.33-.89,2.66-6.99,7.14-12.43,13.69-16.09,3.22-1.8,6.68-2.61,10.38-2.32,3.86.3,7.18,1.8,9.96,4.5,1.77,1.72,3.15,3.72,4.29,5.89,1.9,3.63,3.13,7.5,3.92,11.5.56,2.85.14,5.64-.91,8.34-.68,1.73-1.57,3.35-2.68,4.84-4.08,5.45-9.36,9.25-15.81,11.42-1.62.54-3.29.84-5,.92-.9.04-1.2.23-1.41,1.1-.33,1.36-.55,2.72-.32,4.16.61,3.83.85,7.69.86,11.57,0,3.55-.03,7.1-.17,10.65-.3,7.44-1.03,14.85-2.48,22.16-.19.97-.41,1.93-.61,2.89,0,.05,0,.1.02.19.18.02.37.05.56.06,3.5.1,7,.19,10.5.29.39.01.79.04,1.18.1,1.09.16,1.68.73,1.62,1.83-.05.87.06,1.7.18,2.55.06.45,0,.92,0,1.47-.43-.06-.78-.07-1.09-.17-.66-.2-1.32-.41-1.94-.7-1.75-.8-3.61-1.15-5.51-1.26-2.04-.12-4.09-.18-6.13-.27-.12,0-.24.01-.42.02-.36,1.14-.73,2.28-1.12,3.51.24.05.45.11.65.13,3.66.34,7.29.85,10.89,1.56,5.1,1,10.17,2.11,15.25,3.18.45.1.91.24,1.33.43.68.3,1.08.84,1.18,1.58.14.95-.01,1.87-.34,2.76-.25.67-.65.82-1.28.49-4.29-2.31-8.94-3.48-13.67-4.35-4.24-.77-8.45-1.71-12.65-2.63-.77-.17-1.54-.29-2.38-.45-.33.76-.64,1.47-.99,2.28.83.11,1.57.24,2.32.3,2.07.18,4.08.59,6.11,1.03,2.89.62,5.74,1.37,8.6,2.12.14.04.28.09.43.12.4.08.57.33.65.71.32,1.63.39,3.27.27,5.04-3.23-1.41-6.46-2.66-9.77-3.68-3.32-1.02-6.68-1.88-10.13-2.59Z"/>
    <path class="cls-3" d="M151.94,123.55c-.12.17-.19.27-.25.37-1.83,3.26-4.28,6.01-7.01,8.54-6.03,5.58-13.1,9.11-21.1,10.83-3.89.84-7.82,1.29-11.79,1.5-6.01.32-12.02.12-18.03-.09-3.4-.12-6.8-.05-10.2-.08-3.62-.04-7.25-.03-10.87-.18-4.09-.17-8.14-.72-12.09-1.86-7.46-2.16-12.92-6.75-16.62-13.52-1.15-2.11-2.02-4.33-2.69-6.63-.06-.21-.13-.42-.19-.64-.01-.04-.06-.08-.15-.18-7.8,1.52-15.49,3.55-22.88,6.91-.04-.46-.13-.84-.1-1.22.08-1.2.19-2.4.3-3.61.05-.55.32-.86.9-1,2.82-.69,5.58-1.61,8.47-2.04.24-.04.48-.1.72-.18,1.86-.62,3.81-.74,5.74-.99,2-.26,3.99-.61,5.98-.93.04,0,.08-.05.19-.13-.13-.65-.28-1.34-.43-2.09-1.17.14-2.28.2-3.36.41-3.31.65-6.6,1.37-9.91,2.04-2.63.53-5.27,1.01-7.9,1.54-4.14.84-8.18,1.99-11.93,3.99-.63.34-1.03.2-1.28-.48-.34-.88-.5-1.81-.35-2.76.13-.89.68-1.48,1.52-1.73.97-.28,1.95-.52,2.94-.73,4.75-.98,9.49-1.99,14.25-2.91,3.41-.65,6.85-1.13,10.32-1.43,1.4-.12,2.8-.21,4.2-.32.32-.02.63-.06,1.06-.1-.19-1.15-.38-2.25-.57-3.37-.26-.01-.45-.04-.64-.03-3.69.14-7.39.27-11.08.43-2.11.09-4.15.47-6.09,1.37-.6.28-1.25.46-1.88.65-.25.08-.53.08-.84.13-.19-.75-.16-1.46,0-2.15.1-.46.17-.91.09-1.38-.02-.12,0-.25,0-.37,0-1.27.53-1.92,1.79-1.97,2.78-.13,5.57-.24,8.35-.29,3.03-.06,6.06-.04,9.09-.06.17,0,.34-.03.6-.05-.08-.53-.15-1.04-.23-1.53-.84-5.26-2.23-10.4-3.54-15.56-.92-3.63-1.8-7.27-2.37-10.97-.61-4-.76-7.99-.13-12,.21-1.36.47-2.72.59-4.09.07-.77-.04-1.57-.16-2.35-.09-.57-.4-.8-.98-.82-3.7-.12-7.03-1.43-10.2-3.18-5.35-2.95-9.83-6.9-13.22-12.02-1.86-2.81-3.17-5.84-3.72-9.18-.34-2.09-.32-4.17.05-6.25.48-2.75,1.15-5.45,2.23-8.03,1.07-2.55,2.48-4.87,4.47-6.82,2.48-2.44,5.47-3.92,8.85-4.62,4.77-.98,9.51-.88,14.15.7,5.43,1.85,9.5,5.4,12.49,10.24,1.48,2.41,2.6,4.97,3.25,7.73.03.12.08.23.16.44,7.58-6.36,16.45-9.73,26.04-11.73-.11-2.04-.79-3.85-1.84-5.54-1.06-1.7-2.48-3.05-4.23-4.02.25-.63.74-.8,1.25-.89,1.55-.29,3.09-.17,4.61.24,2.1.57,3.96,1.61,5.66,2.96,1.9,1.52,3.5,3.33,5.03,5.2.26.31.5.64,1.04.31-.01-.25-.02-.54-.04-.83-.38-3.78.02-7.48,1.23-11.08.19-.58.47-1.14.77-1.67.29-.52.74-.92,1.29-1.18,1.19-.55,2.33-.22,2.85.98.38.87.63,1.82.78,2.76.2,1.23.23,2.48.34,3.74.04-.05.11-.12.15-.2.55-1.23,1.52-2.05,2.67-2.67,1.48-.79,3.08-1.17,4.74-1.32,1.11-.1,1.87.7,1.66,1.8-.1.51-.37,1.01-.64,1.47-.27.44-.65.8-.98,1.21-1.19,1.49-1.89,3.33-1.9,5.16.24-.2.42-.35.59-.5,1.61-1.41,3.46-2.36,5.57-2.73.59-.1,1.24-.08,1.82.07,1.21.3,1.52,1.35.72,2.33-.29.36-.66.66-1,.98-.44.41-.91.8-1.33,1.4.72.06,1.33.11,1.93.16,7.4.57,14.65,1.91,21.59,4.64,4.64,1.82,8.94,4.24,12.81,7.41.11.09.23.18.36.26.04.03.09.03.18.05.11-.29.21-.59.33-.89,2.66-6.99,7.14-12.43,13.69-16.09,3.22-1.8,6.68-2.61,10.38-2.32,3.86.3,7.18,1.8,9.96,4.5,1.77,1.72,3.15,3.72,4.29,5.89,1.9,3.63,3.13,7.5,3.92,11.5.56,2.85.14,5.64-.91,8.34-.68,1.73-1.57,3.35-2.68,4.84-4.08,5.45-9.36,9.25-15.81,11.42-1.62.54-3.29.84-5,.92-.9.04-1.2.23-1.41,1.1-.33,1.36-.55,2.72-.32,4.16.61,3.83.85,7.69.86,11.57,0,3.55-.03,7.1-.17,10.65-.3,7.44-1.03,14.85-2.48,22.16-.19.97-.41,1.93-.61,2.89,0,.05,0,.1.02.19.18.02.37.05.56.06,3.5.1,7,.19,10.5.29.39.01.79.04,1.18.1,1.09.16,1.68.73,1.62,1.83-.05.87.06,1.7.18,2.55.06.45,0,.92,0,1.47-.43-.06-.78-.07-1.09-.17-.66-.2-1.32-.41-1.94-.7-1.75-.8-3.61-1.15-5.51-1.26-2.04-.12-4.09-.18-6.13-.27-.12,0-.24.01-.42.02-.36,1.14-.73,2.28-1.12,3.51.24.05.45.11.65.13,3.66.34,7.29.85,10.89,1.56,5.1,1,10.17,2.11,15.25,3.18.45.1.91.24,1.33.43.68.3,1.08.84,1.18,1.58.14.95-.01,1.87-.34,2.76-.25.67-.65.82-1.28.49-4.29-2.31-8.94-3.48-13.67-4.35-4.24-.77-8.45-1.71-12.65-2.63-.77-.17-1.54-.29-2.38-.45-.33.76-.64,1.47-.99,2.28.83.11,1.57.24,2.32.3,2.07.18,4.08.59,6.11,1.03,2.89.62,5.74,1.37,8.6,2.12.14.04.28.09.43.12.4.08.57.33.65.71.32,1.63.39,3.27.27,5.04-3.23-1.41-6.46-2.66-9.77-3.68-3.32-1.02-6.68-1.88-10.13-2.59Z"/>
  </g>
</svg>